Input #0, mov,mp4,m4a,3gp,3g2,mj2, from '/home/hbattu/projects/huberman-gpt/huberman-audio/mp3/tmpb4memxyb.mp4':
  Metadata:
    major_brand     : dash
    minor_version   : 0
    compatible_brands: iso6mp41
    creation_time   : 2022-10-11T15:14:35.000000Z
  Duration: 02:01:01.67, start: 0.000000, bitrate: 129 kb/s
    Stream #0:0(eng): Audio: aac (LC) (mp4a / 0x6134706D), 44100 Hz, stereo, fltp, 0 kb/s (default)
    Metadata:
      creation_time   : 2022-10-11T15:14:35.000000Z
      handler_name    : ISO Media file produced by Google Inc.
Stream mapping:
  Stream #0:0 -> #0:0 (aac (native) -> mp3 (libmp3lame))
Press [q] to stop, [?] for help
[graph_0_in_0_0 @ 0x55d99f27f400] tb:1/44100 samplefmt:fltp samplerate:44100 chlayout:0x3
Output #0, mp3, to '../huberman-audio/mp3/DkS1pkKpILY.mp3':
  Metadata:
    major_brand     : dash
    minor_version   : 0
    compatible_brands: iso6mp41
    TSSE            : Lavf58.29.100
    Stream #0:0(eng): Audio: mp3 (libmp3lame), 44100 Hz, stereo, fltp, delay 1105 (default)
    Metadata:
      creation_time   : 2022-10-11T15:14:35.000000Z
      handler_name    : ISO Media file produced by Google Inc.
      encoder         : Lavc58.54.100 libmp3lame
No more output streams to write to, finishing.
size=  113464kB time=02:01:01.67 bitrate= 128.0kbits/s speed=93.5x    
[AVIOContext @ 0x55d99f16f900] Statistics: 0 seeks, 156 writeouts
video:0kB audio:113464kB subtitle:0kB other streams:0kB global headers:0kB muxing overhead: 0.000298%
Input file #0 (/home/hbattu/projects/huberman-gpt/huberman-audio/mp3/tmpb4memxyb.mp4):
  Input stream #0:0 (audio): 312734 packets read (116186708 bytes); 312734 frames decoded (320239616 samples); 
  Total: 312734 packets (116186708 bytes) demuxed
Output file #0 (../huberman-audio/mp3/DkS1pkKpILY.mp3):
  Output stream #0:0 (audio): 277986 frames encoded (320239616 samples); 277987 packets muxed (116187219 bytes); 
  Total: 277987 packets (116187219 bytes) muxed
[AVIOContext @ 0x55d99f1995c0] Statistics: 2 seeks, 445 writeouts
[AVIOContext @ 0x55d99f178880] Statistics: 117522756 bytes read, 0 seeks
